<svg width="276" height="144" viewBox="0 0 276 144" fill="none" xmlns="http://www.w3.org/2000/svg">
<rect x="2" y="2" width="272" height="140" stroke="white" stroke-width="4"/>
<path d="M33 91V63.7895L51.5526 51.4211L70.1053 63.7895V91H57.7368V73.6842H45.3684V91H33ZM92.3684 44V91H75.0526V61.1426L72.5789 59.51V53.8947H67.6316V56.1953L57.7368 49.6153V44H92.3684ZM84.9474 73.6842H80V78.6316H84.9474V73.6842ZM84.9474 63.7895H80V68.7368H84.9474V63.7895ZM84.9474 53.8947H80V58.8421H84.9474V53.8947Z" fill="#FFB901"/>
<path d="M128.154 61.1406H134.286V80.8691C134.286 83.166 133.794 85.1006 132.81 86.6729C131.839 88.2451 130.492 89.4277 128.77 90.2207C127.061 91.0137 125.092 91.4102 122.863 91.4102C120.635 91.4102 118.652 91.0137 116.916 90.2207C115.193 89.4277 113.84 88.2451 112.855 86.6729C111.885 85.1006 111.399 83.166 111.399 80.8691V61.1406H117.552V80.8691C117.552 82.209 117.764 83.3027 118.188 84.1504C118.611 84.998 119.22 85.6201 120.013 86.0166C120.819 86.4131 121.77 86.6113 122.863 86.6113C123.984 86.6113 124.935 86.4131 125.714 86.0166C126.507 85.6201 127.108 84.998 127.519 84.1504C127.942 83.3027 128.154 82.209 128.154 80.8691V61.1406ZM144.745 59.5V91H138.839V59.5H144.745ZM143.904 79.126H142.284C142.298 77.5811 142.503 76.1592 142.899 74.8604C143.296 73.5479 143.863 72.4131 144.602 71.4561C145.34 70.4854 146.222 69.7334 147.247 69.2002C148.286 68.667 149.435 68.4004 150.692 68.4004C151.786 68.4004 152.777 68.5576 153.666 68.8721C154.568 69.1729 155.341 69.665 155.983 70.3486C156.64 71.0186 157.146 71.9004 157.501 72.9941C157.856 74.0879 158.034 75.4141 158.034 76.9727V91H152.087V76.9316C152.087 75.9473 151.943 75.1748 151.656 74.6143C151.383 74.04 150.979 73.6367 150.446 73.4043C149.927 73.1582 149.284 73.0352 148.519 73.0352C147.671 73.0352 146.946 73.1924 146.345 73.5068C145.757 73.8213 145.285 74.2588 144.93 74.8193C144.574 75.3662 144.314 76.0088 144.15 76.7471C143.986 77.4854 143.904 78.2783 143.904 79.126ZM161.582 80.1309V79.7002C161.582 78.0732 161.814 76.5762 162.279 75.209C162.744 73.8281 163.421 72.6318 164.31 71.6201C165.198 70.6084 166.292 69.8223 167.591 69.2617C168.89 68.6875 170.38 68.4004 172.062 68.4004C173.743 68.4004 175.24 68.6875 176.553 69.2617C177.865 69.8223 178.966 70.6084 179.854 71.6201C180.757 72.6318 181.44 73.8281 181.905 75.209C182.37 76.5762 182.603 78.0732 182.603 79.7002V80.1309C182.603 81.7441 182.37 83.2412 181.905 84.6221C181.44 85.9893 180.757 87.1855 179.854 88.2109C178.966 89.2227 177.872 90.0088 176.573 90.5693C175.274 91.1299 173.784 91.4102 172.103 91.4102C170.421 91.4102 168.924 91.1299 167.611 90.5693C166.312 90.0088 165.212 89.2227 164.31 88.2109C163.421 87.1855 162.744 85.9893 162.279 84.6221C161.814 83.2412 161.582 81.7441 161.582 80.1309ZM167.488 79.7002V80.1309C167.488 81.0605 167.57 81.9287 167.734 82.7354C167.898 83.542 168.158 84.2529 168.514 84.8682C168.883 85.4697 169.361 85.9414 169.949 86.2832C170.537 86.625 171.255 86.7959 172.103 86.7959C172.923 86.7959 173.627 86.625 174.215 86.2832C174.803 85.9414 175.274 85.4697 175.63 84.8682C175.985 84.2529 176.245 83.542 176.409 82.7354C176.587 81.9287 176.676 81.0605 176.676 80.1309V79.7002C176.676 78.7979 176.587 77.9502 176.409 77.1572C176.245 76.3506 175.979 75.6396 175.609 75.0244C175.254 74.3955 174.782 73.9033 174.194 73.5479C173.606 73.1924 172.896 73.0146 172.062 73.0146C171.228 73.0146 170.517 73.1924 169.929 73.5479C169.354 73.9033 168.883 74.3955 168.514 75.0244C168.158 75.6396 167.898 76.3506 167.734 77.1572C167.57 77.9502 167.488 78.7979 167.488 79.7002ZM192.139 73.4043V91H186.212V68.8105H191.77L192.139 73.4043ZM191.318 79.126H189.678C189.678 77.5811 189.862 76.1592 190.231 74.8604C190.614 73.5479 191.168 72.4131 191.893 71.4561C192.631 70.4854 193.54 69.7334 194.62 69.2002C195.7 68.667 196.951 68.4004 198.373 68.4004C199.357 68.4004 200.26 68.5508 201.08 68.8516C201.9 69.1387 202.604 69.5967 203.192 70.2256C203.794 70.8408 204.259 71.6475 204.587 72.6455C204.915 73.6299 205.079 74.8125 205.079 76.1934V91H199.173V76.8496C199.173 75.8379 199.036 75.0586 198.763 74.5117C198.489 73.9648 198.1 73.582 197.594 73.3633C197.102 73.1445 196.507 73.0352 195.81 73.0352C195.044 73.0352 194.374 73.1924 193.8 73.5068C193.239 73.8213 192.774 74.2588 192.405 74.8193C192.036 75.3662 191.763 76.0088 191.585 76.7471C191.407 77.4854 191.318 78.2783 191.318 79.126ZM204.525 78.4492L202.413 78.7158C202.413 77.2666 202.591 75.9199 202.946 74.6758C203.315 73.4316 203.855 72.3379 204.566 71.3945C205.291 70.4512 206.187 69.7197 207.253 69.2002C208.319 68.667 209.55 68.4004 210.944 68.4004C212.011 68.4004 212.981 68.5576 213.856 68.8721C214.731 69.1729 215.477 69.6582 216.092 70.3281C216.721 70.9844 217.199 71.8457 217.527 72.9121C217.869 73.9785 218.04 75.2842 218.04 76.8291V91H212.113V76.8291C212.113 75.8037 211.977 75.0244 211.703 74.4912C211.443 73.9443 211.061 73.5684 210.555 73.3633C210.062 73.1445 209.475 73.0352 208.791 73.0352C208.08 73.0352 207.458 73.1787 206.925 73.4658C206.392 73.7393 205.947 74.1221 205.592 74.6143C205.236 75.1064 204.97 75.6807 204.792 76.3369C204.614 76.9795 204.525 77.6836 204.525 78.4492ZM232.826 91.4102C231.104 91.4102 229.559 91.1367 228.191 90.5898C226.824 90.0293 225.662 89.2568 224.705 88.2725C223.762 87.2881 223.037 86.1465 222.531 84.8477C222.025 83.5352 221.772 82.1406 221.772 80.6641V79.8438C221.772 78.1621 222.012 76.624 222.49 75.2295C222.969 73.835 223.652 72.625 224.541 71.5996C225.443 70.5742 226.537 69.7881 227.822 69.2412C229.107 68.6807 230.557 68.4004 232.17 68.4004C233.742 68.4004 235.137 68.6602 236.354 69.1797C237.57 69.6992 238.589 70.4375 239.409 71.3945C240.243 72.3516 240.872 73.5 241.296 74.8398C241.72 76.166 241.932 77.6426 241.932 79.2695V81.7305H224.295V77.793H236.128V77.3418C236.128 76.5215 235.978 75.79 235.677 75.1475C235.39 74.4912 234.952 73.9717 234.364 73.5889C233.776 73.2061 233.024 73.0146 232.108 73.0146C231.329 73.0146 230.659 73.1855 230.099 73.5273C229.538 73.8691 229.08 74.3477 228.725 74.9629C228.383 75.5781 228.123 76.3027 227.945 77.1367C227.781 77.957 227.699 78.8594 227.699 79.8438V80.6641C227.699 81.5527 227.822 82.373 228.068 83.125C228.328 83.877 228.69 84.5264 229.155 85.0732C229.634 85.6201 230.208 86.0439 230.878 86.3447C231.562 86.6455 232.334 86.7959 233.195 86.7959C234.262 86.7959 235.253 86.5908 236.169 86.1807C237.099 85.7568 237.898 85.1211 238.568 84.2734L241.439 87.3906C240.975 88.0605 240.339 88.7031 239.532 89.3184C238.739 89.9336 237.782 90.4395 236.661 90.8359C235.54 91.2188 234.262 91.4102 232.826 91.4102Z" fill="white"/>
</svg>
